<svg width="301" height="480" viewBox="0 0 301 480" fill="none" xmlns="http://www.w3.org/2000/svg">
<g filter="url(#filter0_d_1_726)">
<path d="M100.477 150.4L98.0766 147.2L96.4766 148.4V150.4H100.477ZM167.677 100V96H166.343L165.277 96.8L167.677 100ZM200.477 100H204.477V96H200.477V100ZM200.477 380V384H204.477V380H200.477ZM160.477 380H156.477V384H160.477V380ZM160.477 152.4H164.477V144.464L158.097 149.185L160.477 152.4ZM100.477 196.8H96.4766V204.736L102.856 200.015L100.477 196.8ZM102.877 153.6L170.077 103.2L165.277 96.8L98.0766 147.2L102.877 153.6ZM167.677 104H200.477V96H167.677V104ZM196.477 100V380H204.477V100H196.477ZM200.477 376H160.477V384H200.477V376ZM164.477 380V152.4H156.477V380H164.477ZM158.097 149.185L98.0972 193.585L102.856 200.015L162.856 155.615L158.097 149.185ZM104.477 196.8V150.4H96.4766V196.8H104.477Z" fill="#1D56EB"/>
</g>
<defs>
<filter id="filter0_d_1_726" x="0.476562" y="0" width="300" height="480" filterUnits="userSpaceOnUse" color-interpolation-filters="sRGB">
<feFlood flood-opacity="0" result="BackgroundImageFix"/>
<feColorMatrix in="SourceAlpha" type="matrix" values="0 0 0 0 0 0 0 0 0 0 0 0 0 0 0 0 0 0 127 0" result="hardAlpha"/>
<feOffset/>
<feGaussianBlur stdDeviation="50"/>
<feComposite in2="hardAlpha" operator="out"/>
<feColorMatrix type="matrix" values="0 0 0 0 0.113725 0 0 0 0 0.337255 0 0 0 0 0.921569 0 0 0 1 0"/>
<feBlend mode="normal" in2="BackgroundImageFix" result="effect1_dropShadow_1_726"/>
<feBlend mode="normal" in="SourceGraphic" in2="effect1_dropShadow_1_726" result="shape"/>
</filter>
</defs>
</svg>
