<svg width="416" height="484" viewBox="0 0 416 484" fill="none" xmlns="http://www.w3.org/2000/svg">
<g filter="url(#filter0_d_1_729)">
<path d="M315.52 346.4H319.52V342.4H315.52V346.4ZM315.52 384V388H319.52V384H315.52ZM101.92 384L97.9228 384.141L98.059 388H101.92V384ZM100.72 350L98.2631 346.844L96.6507 348.099L96.7228 350.141L100.72 350ZM223.52 254.4L221.072 251.237L221.063 251.244L223.52 254.4ZM260.32 218.8L257.13 216.388L257.111 216.413L257.092 216.438L260.32 218.8ZM255.92 149.2L253.459 152.353L253.478 152.368L253.496 152.382L255.92 149.2ZM169.12 149.2L171.356 152.517L171.364 152.512L171.371 152.506L169.12 149.2ZM145.92 192V196H149.338L149.871 192.624L145.92 192ZM104.32 192L100.335 191.658L99.9628 196H104.32V192ZM121.92 143.2L118.699 140.829L118.691 140.84L121.92 143.2ZM161.52 111.2L163.162 114.848L163.175 114.842L163.189 114.835L161.52 111.2ZM267.52 110.4L265.836 114.028L265.863 114.04L265.89 114.053L267.52 110.4ZM301.52 138.4L298.158 140.567L298.169 140.584L298.18 140.601L301.52 138.4ZM303.92 218.8L307.482 220.62L303.92 218.8ZM277.52 253.2L280.279 256.097L280.281 256.095L277.52 253.2ZM231.12 292L233.557 295.172L233.561 295.169L231.12 292ZM160.32 346.4L157.883 343.228L148.549 350.4H160.32V346.4ZM311.52 346.4V384H319.52V346.4H311.52ZM315.52 380H101.92V388H315.52V380ZM105.918 383.859L104.718 349.859L96.7228 350.141L97.9228 384.141L105.918 383.859ZM103.177 353.156L225.978 257.556L221.063 251.244L98.2631 346.844L103.177 353.156ZM225.969 257.563C242.656 244.644 255.242 232.514 263.548 221.162L257.092 216.438C249.399 226.952 237.451 238.556 221.072 251.237L225.969 257.563ZM263.511 221.212C272.275 209.621 276.72 196.782 276.72 182.8H268.72C268.72 194.951 264.899 206.112 257.13 216.388L263.511 221.212ZM276.72 182.8C276.72 167.663 270.519 155.294 258.344 146.018L253.496 152.382C263.721 160.172 268.72 170.204 268.72 182.8H276.72ZM258.381 146.047C246.606 136.856 231.818 132.4 214.32 132.4V140.4C230.423 140.4 243.368 144.477 253.459 152.353L258.381 146.047ZM214.32 132.4C196.05 132.4 180.168 136.839 166.869 145.894L171.371 152.506C183.139 144.494 197.391 140.4 214.32 140.4V132.4ZM166.885 145.883C153.385 154.981 145.273 170.45 141.969 191.376L149.871 192.624C152.967 173.017 160.322 159.953 171.356 152.517L166.885 145.883ZM145.92 188H104.32V196H145.92V188ZM108.306 192.342C109.849 174.336 115.487 158.783 125.15 145.56L118.691 140.84C108.087 155.351 101.992 172.331 100.335 191.658L108.306 192.342ZM125.142 145.571C135.134 131.992 147.79 121.765 163.162 114.848L159.879 107.552C143.251 115.035 129.507 126.141 118.699 140.829L125.142 145.571ZM163.189 114.835C178.902 107.623 195.929 104 214.32 104V96C194.845 96 176.672 99.8439 159.852 107.565L163.189 114.835ZM214.32 104C234.412 104 251.544 107.392 265.836 114.028L269.205 106.772C253.63 99.5408 235.296 96 214.32 96V104ZM265.89 114.053C280.22 120.45 290.904 129.311 298.158 140.567L304.883 136.233C296.67 123.489 284.687 113.683 269.151 106.747L265.89 114.053ZM298.18 140.601C305.448 151.628 309.12 164.316 309.12 178.8H317.12C317.12 162.884 313.059 148.639 304.86 136.199L298.18 140.601ZM309.12 178.8C309.12 192.891 306.179 205.592 300.359 216.98L307.482 220.62C313.928 208.008 317.12 194.043 317.12 178.8H309.12ZM300.359 216.98C294.462 228.515 285.957 239.629 274.76 250.305L280.281 256.095C292.017 244.904 301.112 233.085 307.482 220.62L300.359 216.98ZM274.762 250.303C263.705 260.834 248.36 273.672 228.679 288.831L233.561 295.169C253.347 279.928 268.936 266.899 280.279 256.097L274.762 250.303ZM228.683 288.828L157.883 343.228L162.757 349.572L233.557 295.172L228.683 288.828ZM160.32 350.4H315.52V342.4H160.32V350.4Z" fill="#1D56EB"/>
</g>
<defs>
<filter id="filter0_d_1_729" x="0.720306" y="0" width="414.8" height="484" filterUnits="userSpaceOnUse" color-interpolation-filters="sRGB">
<feFlood flood-opacity="0" result="BackgroundImageFix"/>
<feColorMatrix in="SourceAlpha" type="matrix" values="0 0 0 0 0 0 0 0 0 0 0 0 0 0 0 0 0 0 127 0" result="hardAlpha"/>
<feOffset/>
<feGaussianBlur stdDeviation="50"/>
<feComposite in2="hardAlpha" operator="out"/>
<feColorMatrix type="matrix" values="0 0 0 0 0.113725 0 0 0 0 0.337255 0 0 0 0 0.921569 0 0 0 1 0"/>
<feBlend mode="normal" in2="BackgroundImageFix" result="effect1_dropShadow_1_729"/>
<feBlend mode="normal" in="SourceGraphic" in2="effect1_dropShadow_1_729" result="shape"/>
</filter>
</defs>
</svg>
