<svg width="416" height="488" viewBox="0 0 416 488" fill="none" xmlns="http://www.w3.org/2000/svg">
<g filter="url(#filter0_d_1_742)">
<path d="M275.277 239.6L273.207 236.177L266.785 240.06L273.589 243.227L275.277 239.6ZM302.077 348.4L305.341 350.712H305.341L302.077 348.4ZM264.477 378L266.015 381.692L266.041 381.681L266.067 381.67L264.477 378ZM158.877 376.8L157.162 380.414L157.173 380.419L157.185 380.425L158.877 376.8ZM119.277 344.8L116.077 347.2L116.091 347.22L116.106 347.239L119.277 344.8ZM100.077 296.4V292.4H95.5209L96.1102 296.917L100.077 296.4ZM139.277 296.4L143.122 295.297L142.291 292.4H139.277V296.4ZM259.677 338L262.101 341.182L262.124 341.164L262.148 341.145L259.677 338ZM263.277 272.8L260.541 275.718L260.588 275.762L260.636 275.805L263.277 272.8ZM190.877 260.8H186.877V264.8H190.877V260.8ZM190.877 227.2V223.2H186.877V227.2H190.877ZM256.477 214L253.648 211.172L253.626 211.193L253.605 211.215L256.477 214ZM253.277 149.2L250.877 152.4L250.921 152.433L250.967 152.466L253.277 149.2ZM166.877 150.8L169.242 154.026L169.265 154.009L169.288 153.991L166.877 150.8ZM142.477 188V192H145.55L146.342 189.031L142.477 188ZM103.677 188L99.7217 187.401L99.0248 192H103.677V188ZM122.877 141.6L126.061 144.02H126.061L122.877 141.6ZM160.877 110.8L162.589 114.415V114.415L160.877 110.8ZM297.277 137.2L293.983 139.469L293.994 139.487L294.007 139.504L297.277 137.2ZM300.877 213.6L297.372 211.672L297.363 211.688L297.355 211.704L300.877 213.6ZM273.589 243.227C286.491 249.231 295.947 257.2 302.2 267.045C308.455 276.891 311.677 288.881 311.677 303.2H319.677C319.677 287.653 316.165 274.109 308.953 262.755C301.74 251.4 290.995 242.503 276.964 235.973L273.589 243.227ZM311.677 303.2C311.677 319.796 307.35 334.035 298.812 346.088L305.341 350.712C314.936 337.165 319.677 321.271 319.677 303.2H311.677ZM298.812 346.088C290.215 358.225 278.292 367.654 262.886 374.33L266.067 381.67C282.661 374.479 295.805 364.174 305.341 350.712L298.812 346.088ZM262.938 374.308C247.501 380.74 229.903 384 210.077 384V392C230.783 392 249.452 388.593 266.015 381.692L262.938 374.308ZM210.077 384C192.511 384 176.024 380.388 160.568 373.175L157.185 380.425C173.729 388.145 191.375 392 210.077 392V384ZM160.592 373.186C145.432 365.992 132.73 355.729 122.447 342.361L116.106 347.239C127.156 361.604 140.854 372.675 157.162 380.414L160.592 373.186ZM122.477 342.4C112.519 329.123 106.36 313.649 104.043 295.883L96.1102 296.917C98.5928 315.951 105.234 332.743 116.077 347.2L122.477 342.4ZM100.077 300.4H139.277V292.4H100.077V300.4ZM135.432 297.503C140.812 316.266 149.892 330.697 162.882 340.404C175.868 350.108 192.373 354.8 212.077 354.8V346.8C193.647 346.8 178.951 342.425 167.671 333.996C156.395 325.569 148.141 312.8 143.122 295.297L135.432 297.503ZM212.077 354.8C233.099 354.8 249.949 350.44 262.101 341.182L257.252 334.818C247.004 342.626 232.12 346.8 212.077 346.8V354.8ZM262.148 341.145C274.346 331.561 280.477 318.652 280.477 302.8H272.477C272.477 316.282 267.407 326.839 257.205 334.855L262.148 341.145ZM280.477 302.8C280.477 289.444 275.626 278.328 265.917 269.795L260.636 275.805C268.527 282.739 272.477 291.622 272.477 302.8H280.477ZM266.012 269.882C256.348 260.822 240.523 256.8 219.677 256.8V264.8C239.896 264.8 253.138 268.778 260.541 275.718L266.012 269.882ZM219.677 256.8H190.877V264.8H219.677V256.8ZM194.877 260.8V227.2H186.877V260.8H194.877ZM190.877 231.2H219.677V223.2H190.877V231.2ZM219.677 231.2C236.413 231.2 249.851 226.579 259.348 216.785L253.605 211.215C246.036 219.021 234.94 223.2 219.677 223.2V231.2ZM259.305 216.828C268.861 207.272 273.677 195.586 273.677 182H265.677C265.677 193.481 261.692 203.128 253.648 211.172L259.305 216.828ZM273.677 182C273.677 166.653 267.647 154.465 255.586 145.934L250.967 152.466C260.773 159.402 265.677 169.08 265.677 182H273.677ZM255.677 146C244.056 137.285 227.878 133.2 207.677 133.2V141.2C226.941 141.2 241.164 145.115 250.877 152.4L255.677 146ZM207.677 133.2C191.616 133.2 177.168 138.011 164.465 147.609L169.288 153.991C180.586 145.455 193.337 141.2 207.677 141.2V133.2ZM164.511 147.574C151.692 156.975 143.085 170.194 138.612 186.969L146.342 189.031C150.401 173.806 158.061 162.225 169.242 154.026L164.511 147.574ZM142.477 184H103.677V192H142.477V184ZM107.631 188.599C110.204 171.618 116.358 156.787 126.061 144.02L119.692 139.18C109.128 153.08 102.482 169.182 99.7217 187.401L107.631 188.599ZM126.061 144.02C135.805 131.2 147.966 121.342 162.589 114.415L159.164 107.185C143.387 114.658 130.215 125.334 119.692 139.18L126.061 144.02ZM162.589 114.415C177.246 107.472 192.793 104 209.277 104V96C191.627 96 174.908 99.7277 159.164 107.185L162.589 114.415ZM209.277 104C228.854 104 245.908 107.132 260.524 113.287L263.629 105.913C247.845 99.2675 229.699 96 209.277 96V104ZM260.524 113.287C275.116 119.43 286.204 128.178 293.983 139.469L300.571 134.931C291.815 122.222 279.437 112.57 263.629 105.913L260.524 113.287ZM294.007 139.504C301.761 150.51 305.677 163.291 305.677 178H313.677C313.677 161.776 309.326 147.357 300.546 134.896L294.007 139.504ZM305.677 178C305.677 190.444 302.89 201.639 297.372 211.672L304.381 215.528C310.597 204.227 313.677 191.69 313.677 178H305.677ZM297.355 211.704C292.137 221.393 284.146 229.563 273.207 236.177L277.346 243.023C289.341 235.77 298.416 226.607 304.398 215.496L297.355 211.704Z" fill="#1D56EB"/>
</g>
<defs>
<filter id="filter0_d_1_742" x="0.0765686" y="0" width="415.6" height="488" filterUnits="userSpaceOnUse" color-interpolation-filters="sRGB">
<feFlood flood-opacity="0" result="BackgroundImageFix"/>
<feColorMatrix in="SourceAlpha" type="matrix" values="0 0 0 0 0 0 0 0 0 0 0 0 0 0 0 0 0 0 127 0" result="hardAlpha"/>
<feOffset/>
<feGaussianBlur stdDeviation="50"/>
<feComposite in2="hardAlpha" operator="out"/>
<feColorMatrix type="matrix" values="0 0 0 0 0.113725 0 0 0 0 0.337255 0 0 0 0 0.921569 0 0 0 1 0"/>
<feBlend mode="normal" in2="BackgroundImageFix" result="effect1_dropShadow_1_742"/>
<feBlend mode="normal" in="SourceGraphic" in2="effect1_dropShadow_1_742" result="shape"/>
</filter>
</defs>
</svg>
