<svg width="258" height="26" viewBox="0 0 258 26" fill="none" xmlns="http://www.w3.org/2000/svg">
<path d="M9.504 5.7C10.624 5.7 11.584 5.916 12.384 6.348C13.2 6.764 13.816 7.348 14.232 8.1C14.664 8.836 14.88 9.676 14.88 10.62C14.88 11.564 14.664 12.412 14.232 13.164C13.816 13.9 13.2 14.484 12.384 14.916C11.584 15.332 10.624 15.54 9.504 15.54H4.56V22.5H2.16V5.7H9.504ZM9.432 13.308C10.392 13.308 11.12 13.084 11.616 12.636C12.112 12.172 12.36 11.5 12.36 10.62C12.36 9.74 12.112 9.076 11.616 8.628C11.12 8.18 10.392 7.956 9.432 7.956H4.56V13.308H9.432ZM31.7854 20.196V22.5H30.2974C28.9374 22.5 28.2574 21.82 28.2574 20.46V17.316C28.2574 16.148 27.6734 15.564 26.5054 15.564H21.0094V15.54H20.1694V22.5H17.7694V5.7H25.7134C26.8334 5.7 27.7934 5.916 28.5934 6.348C29.4094 6.764 30.0254 7.348 30.4414 8.1C30.8734 8.836 31.0894 9.676 31.0894 10.62C31.0894 11.436 30.9294 12.172 30.6094 12.828C30.3054 13.484 29.8574 14.036 29.2654 14.484C29.7294 14.74 30.0734 15.092 30.2974 15.54C30.5374 15.988 30.6574 16.548 30.6574 17.22V19.596C30.6574 19.996 30.8574 20.196 31.2574 20.196H31.7854ZM20.1694 13.356H25.5694C26.5294 13.356 27.2654 13.124 27.7774 12.66C28.3054 12.18 28.5694 11.5 28.5694 10.62C28.5694 9.74 28.3054 9.068 27.7774 8.604C27.2654 8.124 26.5294 7.884 25.5694 7.884H20.1694V13.356ZM42.1134 22.74C40.4974 22.74 39.0174 22.364 37.6734 21.612C36.3294 20.844 35.2734 19.804 34.5054 18.492C33.7374 17.164 33.3534 15.7 33.3534 14.1C33.3534 12.5 33.7374 11.044 34.5054 9.732C35.2734 8.404 36.3294 7.364 37.6734 6.612C39.0174 5.844 40.4974 5.46 42.1134 5.46C43.7294 5.46 45.2094 5.844 46.5534 6.612C47.8974 7.364 48.9534 8.404 49.7214 9.732C50.4894 11.044 50.8734 12.5 50.8734 14.1C50.8734 15.7 50.4894 17.164 49.7214 18.492C48.9534 19.804 47.8974 20.844 46.5534 21.612C45.2094 22.364 43.7294 22.74 42.1134 22.74ZM42.1134 20.436C43.2654 20.436 44.3134 20.156 45.2574 19.596C46.2174 19.036 46.9694 18.276 47.5134 17.316C48.0734 16.34 48.3534 15.268 48.3534 14.1C48.3534 12.932 48.0734 11.868 47.5134 10.908C46.9694 9.932 46.2174 9.164 45.2574 8.604C44.3134 8.044 43.2654 7.764 42.1134 7.764C40.9614 7.764 39.9054 8.044 38.9454 8.604C38.0014 9.164 37.2494 9.932 36.6894 10.908C36.1454 11.868 35.8734 12.932 35.8734 14.1C35.8734 15.268 36.1454 16.34 36.6894 17.316C37.2494 18.276 38.0014 19.036 38.9454 19.596C39.9054 20.156 40.9614 20.436 42.1134 20.436Z" fill="#1D56EB"/>
<path d="M59.8809 5.7C61.6729 5.7 63.2249 6.068 64.5369 6.804C65.8649 7.54 66.8809 8.548 67.5849 9.828C68.2889 11.092 68.6409 12.516 68.6409 14.1C68.6409 15.684 68.2889 17.116 67.5849 18.396C66.8809 19.66 65.8649 20.66 64.5369 21.396C63.2249 22.132 61.6729 22.5 59.8809 22.5H54.1209V5.7H59.8809ZM59.8809 20.196C61.1449 20.196 62.2489 19.948 63.1929 19.452C64.1369 18.956 64.8569 18.252 65.3529 17.34C65.8649 16.412 66.1209 15.332 66.1209 14.1C66.1209 12.868 65.8649 11.796 65.3529 10.884C64.8569 9.956 64.1369 9.244 63.1929 8.748C62.2489 8.252 61.1449 8.004 59.8809 8.004H56.5209V20.196H59.8809ZM78.9666 22.74C77.5906 22.74 76.3426 22.436 75.2226 21.828C74.1186 21.204 73.2466 20.348 72.6066 19.26C71.9666 18.172 71.6466 16.964 71.6466 15.636V5.7H74.0466V15.636C74.0466 16.532 74.2626 17.348 74.6946 18.084C75.1266 18.82 75.7106 19.396 76.4466 19.812C77.1986 20.228 78.0386 20.436 78.9666 20.436C79.8946 20.436 80.7266 20.228 81.4626 19.812C82.2146 19.396 82.8066 18.82 83.2386 18.084C83.6706 17.348 83.8866 16.532 83.8866 15.636V5.7H86.2866V15.636C86.2866 16.964 85.9666 18.172 85.3266 19.26C84.6866 20.348 83.8066 21.204 82.6866 21.828C81.5826 22.436 80.3426 22.74 78.9666 22.74ZM89.2753 14.1C89.2753 12.5 89.6513 11.044 90.4033 9.732C91.1713 8.404 92.2113 7.364 93.5233 6.612C94.8353 5.844 96.2913 5.46 97.8913 5.46C99.1233 5.46 100.275 5.7 101.347 6.18C102.419 6.644 103.339 7.316 104.107 8.196C104.891 9.06 105.467 10.068 105.835 11.22H103.171C102.675 10.148 101.971 9.308 101.059 8.7C100.163 8.076 99.1073 7.764 97.8913 7.764C96.7553 7.764 95.7233 8.044 94.7953 8.604C93.8673 9.164 93.1313 9.932 92.5873 10.908C92.0593 11.868 91.7953 12.932 91.7953 14.1C91.7953 15.268 92.0593 16.34 92.5873 17.316C93.1313 18.276 93.8673 19.036 94.7953 19.596C95.7233 20.156 96.7553 20.436 97.8913 20.436C99.1073 20.436 100.163 20.132 101.059 19.524C101.971 18.9 102.675 18.052 103.171 16.98H105.835C105.467 18.132 104.891 19.148 104.107 20.028C103.339 20.892 102.419 21.564 101.347 22.044C100.275 22.508 99.1233 22.74 97.8913 22.74C96.2913 22.74 94.8353 22.364 93.5233 21.612C92.2113 20.844 91.1713 19.804 90.4033 18.492C89.6513 17.164 89.2753 15.7 89.2753 14.1ZM120.698 8.004H114.698V22.5H112.298V8.004H106.298V5.7H120.698V8.004ZM149.861 22.5H147.461V8.7L141.077 22.5H138.677L132.341 8.82V22.5H129.941V5.7H133.445L139.949 19.668L146.429 5.7H149.861V22.5ZM156.576 7.956V12.972H164.736V15.228H156.576V20.244H165.456V22.5H154.176V5.7H165.456V7.956H156.576ZM183.938 5.7V22.5H181.298L171.458 8.844V22.5H169.058V5.7H172.01L181.538 18.996V5.7H183.938ZM200.854 8.004H194.854V22.5H192.454V8.004H186.454V5.7H200.854V8.004ZM209.856 22.74C208.24 22.74 206.76 22.364 205.416 21.612C204.072 20.844 203.016 19.804 202.248 18.492C201.48 17.164 201.096 15.7 201.096 14.1C201.096 12.5 201.48 11.044 202.248 9.732C203.016 8.404 204.072 7.364 205.416 6.612C206.76 5.844 208.24 5.46 209.856 5.46C211.472 5.46 212.952 5.844 214.296 6.612C215.64 7.364 216.696 8.404 217.464 9.732C218.232 11.044 218.616 12.5 218.616 14.1C218.616 15.7 218.232 17.164 217.464 18.492C216.696 19.804 215.64 20.844 214.296 21.612C212.952 22.364 211.472 22.74 209.856 22.74ZM209.856 20.436C211.008 20.436 212.056 20.156 213 19.596C213.96 19.036 214.712 18.276 215.256 17.316C215.816 16.34 216.096 15.268 216.096 14.1C216.096 12.932 215.816 11.868 215.256 10.908C214.712 9.932 213.96 9.164 213 8.604C212.056 8.044 211.008 7.764 209.856 7.764C208.704 7.764 207.648 8.044 206.688 8.604C205.744 9.164 204.992 9.932 204.432 10.908C203.888 11.868 203.616 12.932 203.616 14.1C203.616 15.268 203.888 16.34 204.432 17.316C204.992 18.276 205.744 19.036 206.688 19.596C207.648 20.156 208.704 20.436 209.856 20.436ZM235.879 20.196V22.5H234.391C233.031 22.5 232.351 21.82 232.351 20.46V17.316C232.351 16.148 231.767 15.564 230.599 15.564H225.103V15.54H224.263V22.5H221.863V5.7H229.807C230.927 5.7 231.887 5.916 232.687 6.348C233.503 6.764 234.119 7.348 234.535 8.1C234.967 8.836 235.183 9.676 235.183 10.62C235.183 11.436 235.023 12.172 234.703 12.828C234.399 13.484 233.951 14.036 233.359 14.484C233.823 14.74 234.167 15.092 234.391 15.54C234.631 15.988 234.751 16.548 234.751 17.22V19.596C234.751 19.996 234.951 20.196 235.351 20.196H235.879ZM224.263 13.356H229.663C230.623 13.356 231.359 13.124 231.871 12.66C232.399 12.18 232.663 11.5 232.663 10.62C232.663 9.74 232.399 9.068 231.871 8.604C231.359 8.124 230.623 7.884 229.663 7.884H224.263V13.356Z" fill="#F8F8F9"/>
</svg>
