<svg width="497" height="346" viewBox="0 0 497 346" fill="none" xmlns="http://www.w3.org/2000/svg">
<path fill-rule="evenodd" clip-rule="evenodd" d="M493.559 126.342C331.486 84.4392 169.414 42.5372 7.34034 0.634859C1.66052 3.41584 -0.499114 7.9661 0.863639 14.2862C8.69584 36.6771 17.3317 58.7547 26.77 80.5188C38.5864 84.613 43.3717 80.5451 41.1249 68.3148C37.1966 57.2668 32.9471 46.344 28.3765 35.5462C27.8299 34.6189 28.0204 33.8823 28.9479 33.3361C111.734 87.386 194.675 141.25 277.771 194.927C220.117 209.69 162.464 224.453 104.81 239.217C88.1187 194.955 71.2636 150.712 54.2451 106.485C43.1993 101.138 38.1413 104.743 39.071 117.298C56.2095 163.683 73.5099 210.007 90.9699 256.269C94.0798 259.289 97.764 260.241 102.02 259.126C130.557 251.531 159.175 244.193 187.877 237.115C217.62 271.826 247.1 306.76 276.315 341.914C283.239 346.993 288.831 345.884 293.09 338.588C316.286 283.615 339.703 228.759 363.342 174.02C405.736 163.563 448.128 153.107 490.522 142.65C496.689 138.02 497.701 132.583 493.559 126.342ZM447.816 134.557C338.198 104.842 228.11 76.1829 117.551 48.5806C197.008 84.101 276.405 119.757 355.739 155.549C386.504 148.816 417.197 141.819 447.816 134.557ZM123.602 70.7758C122.129 70.2104 120.607 70.0135 119.039 70.1855C181.647 110.736 244.255 151.287 306.863 191.838C309.602 194.464 310.545 197.655 309.693 201.411C306.927 224.274 304.159 247.137 301.392 270C316.317 237.059 330.609 203.815 344.271 170.268C270.339 137.581 196.784 104.417 123.602 70.7758ZM289.956 211.634C262.906 217.767 235.999 224.565 209.234 232.026C231.414 259.256 253.898 286.289 276.685 313.126C281.622 279.584 286.046 245.754 289.956 211.634Z" fill="#1D56EB"/>
</svg>
