<svg width="32" height="20" viewBox="0 0 32 20" fill="none" xmlns="http://www.w3.org/2000/svg">
<path d="M18.6828 4.81632C18.6897 4.81632 18.6953 4.82199 18.6953 4.82898C18.6952 6.00978 18.687 7.19058 18.6953 8.37138C18.6953 8.79272 18.6703 9.28428 19.0868 9.50373C19.52 9.73196 19.8865 9.40717 20.2031 9.12628C21.4027 8.07293 22.2857 6.72991 23.0604 5.33422C23.8102 3.97364 24.4766 2.56039 25.143 1.14715C25.4846 0.418579 25.9761 0.0323509 26.7425 0.0323509C27.8921 0.0411288 29.05 0.0323509 30.1996 0.0323509C30.2996 0.0323509 30.3912 0.0323509 30.4912 0.0411288C31.1743 0.12013 31.4908 0.567804 31.2992 1.26126C31.1493 1.77916 30.966 2.28828 30.7328 2.76228C29.5998 5.09721 28.1836 7.2478 26.7591 9.38962C26.0261 10.4956 26.0594 10.7326 26.9257 11.7158C28.3169 13.3046 29.6998 14.9022 31.0327 16.5436C31.4242 17.0264 31.7074 17.6496 31.9157 18.2641C32.1823 19.0366 31.7991 19.6335 31.016 19.6686C29.6581 19.7212 28.2919 19.7125 26.9341 19.6686C26.3843 19.651 25.9594 19.2736 25.5845 18.8698C24.8431 18.0534 24.1517 17.1932 23.3686 16.4383C22.5023 15.6044 21.5609 14.8495 20.6113 14.1209C20.328 13.9102 19.9115 13.8488 19.5533 13.8137C19.0201 13.7698 18.8119 13.9717 18.7536 14.5335C18.7036 15.0163 18.6869 15.4991 18.6869 15.9818C18.6786 16.7718 18.7036 17.5619 18.6953 18.3519C18.6869 19.0804 18.4787 19.3613 17.8122 19.5281C16.4544 19.8705 15.1048 19.73 13.7803 19.3701C10.5981 18.5099 8.10725 16.5524 6.11628 13.8664C3.87538 10.8468 2.00936 7.58136 0.734805 3.97364C0.44324 3.15729 0.234978 2.30583 0.0517084 1.45437C-0.148222 0.523915 0.234978 0.0499068 1.143 0.0411288C2.30926 0.0323509 3.47552 0.0499068 4.64179 0.0323509C5.39153 0.0147951 5.87469 0.37469 6.1496 1.09448C6.64109 2.36728 7.1076 3.64886 7.64908 4.89532C8.39882 6.62457 9.29018 8.2836 10.4398 9.75829C10.7647 10.1709 11.1312 10.5659 11.5394 10.8819C12.1475 11.3646 12.6557 11.1189 12.664 10.3376C12.689 8.2046 12.689 6.07156 12.6557 3.93853C12.6473 3.22751 12.3641 2.57795 11.9393 2.00738C11.8226 1.84938 11.706 1.6826 11.5811 1.5246C11.3561 1.23493 11.2395 0.910143 11.4061 0.550248C11.5727 0.181576 11.8809 0.0411288 12.2558 0.0411288C14.0719 0.0411288 15.8962 0.0411288 17.7123 0.0411288C18.337 0.0411288 18.6453 0.3308 18.6619 0.997922C18.6868 2.2665 18.6704 3.53508 18.6703 4.80365C18.6703 4.81065 18.6759 4.81632 18.6828 4.81632Z" fill="#1D56EB"/>
</svg>
