<svg width="1318" height="902" viewBox="0 0 1318 902" fill="none" xmlns="http://www.w3.org/2000/svg">
<path d="M519.719 668.239C518.594 668.239 517.591 668.045 516.71 667.659C515.835 667.273 515.139 666.736 514.622 666.048C514.111 665.355 513.832 664.551 513.787 663.636H515.935C515.98 664.199 516.173 664.685 516.514 665.094C516.855 665.497 517.301 665.81 517.852 666.031C518.403 666.253 519.014 666.364 519.685 666.364C520.435 666.364 521.099 666.233 521.679 665.972C522.258 665.71 522.713 665.347 523.042 664.881C523.372 664.415 523.537 663.875 523.537 663.261C523.537 662.619 523.378 662.054 523.06 661.565C522.741 661.071 522.275 660.685 521.662 660.406C521.048 660.128 520.298 659.989 519.412 659.989H518.014V658.114H519.412C520.105 658.114 520.713 657.989 521.236 657.739C521.764 657.489 522.176 657.136 522.471 656.682C522.773 656.227 522.923 655.693 522.923 655.08C522.923 654.489 522.792 653.974 522.531 653.537C522.27 653.099 521.9 652.759 521.423 652.514C520.952 652.27 520.395 652.148 519.753 652.148C519.15 652.148 518.582 652.259 518.048 652.48C517.52 652.696 517.088 653.011 516.753 653.426C516.417 653.835 516.236 654.33 516.207 654.909H514.162C514.196 653.994 514.471 653.193 514.988 652.506C515.506 651.812 516.182 651.273 517.017 650.886C517.858 650.5 518.781 650.307 519.787 650.307C520.866 650.307 521.792 650.526 522.565 650.963C523.338 651.395 523.932 651.966 524.346 652.676C524.761 653.386 524.969 654.153 524.969 654.977C524.969 655.96 524.71 656.798 524.193 657.491C523.682 658.185 522.986 658.665 522.105 658.932V659.068C523.207 659.25 524.068 659.719 524.687 660.474C525.307 661.224 525.616 662.153 525.616 663.261C525.616 664.21 525.358 665.062 524.841 665.818C524.329 666.568 523.631 667.159 522.744 667.591C521.858 668.023 520.849 668.239 519.719 668.239ZM533.948 668.307C533.119 668.307 532.366 668.151 531.69 667.838C531.014 667.52 530.477 667.062 530.079 666.466C529.681 665.864 529.483 665.136 529.483 664.284C529.483 663.534 529.63 662.926 529.926 662.46C530.221 661.989 530.616 661.619 531.11 661.352C531.605 661.085 532.15 660.886 532.747 660.756C533.349 660.619 533.954 660.511 534.562 660.432C535.358 660.33 536.002 660.253 536.497 660.202C536.997 660.145 537.36 660.051 537.588 659.92C537.821 659.79 537.937 659.562 537.937 659.239V659.17C537.937 658.33 537.707 657.676 537.247 657.21C536.792 656.744 536.102 656.511 535.176 656.511C534.216 656.511 533.463 656.722 532.917 657.142C532.372 657.562 531.988 658.011 531.767 658.489L529.858 657.807C530.198 657.011 530.653 656.392 531.221 655.949C531.795 655.5 532.42 655.187 533.096 655.011C533.778 654.83 534.448 654.739 535.108 654.739C535.528 654.739 536.011 654.79 536.556 654.892C537.108 654.989 537.639 655.19 538.15 655.497C538.667 655.804 539.096 656.267 539.437 656.886C539.778 657.506 539.948 658.335 539.948 659.375V668H537.937V666.227H537.835C537.698 666.511 537.471 666.815 537.153 667.139C536.835 667.463 536.412 667.739 535.883 667.966C535.355 668.193 534.71 668.307 533.948 668.307ZM534.255 666.5C535.051 666.5 535.721 666.344 536.267 666.031C536.818 665.719 537.233 665.315 537.511 664.821C537.795 664.327 537.937 663.807 537.937 663.261V661.42C537.852 661.523 537.664 661.616 537.375 661.702C537.091 661.781 536.761 661.852 536.386 661.915C536.017 661.972 535.656 662.023 535.304 662.068C534.957 662.108 534.676 662.142 534.46 662.17C533.937 662.239 533.448 662.349 532.994 662.503C532.545 662.651 532.181 662.875 531.903 663.176C531.63 663.472 531.494 663.875 531.494 664.386C531.494 665.085 531.752 665.614 532.27 665.972C532.792 666.324 533.454 666.5 534.255 666.5ZM552.455 668V656.75H548.977C548.193 656.75 547.577 656.932 547.128 657.295C546.679 657.659 546.455 658.159 546.455 658.795C546.455 659.42 546.656 659.912 547.06 660.27C547.469 660.628 548.029 660.807 548.739 660.807H552.966V662.682H548.739C547.852 662.682 547.088 662.526 546.446 662.213C545.804 661.901 545.31 661.455 544.963 660.875C544.617 660.29 544.443 659.597 544.443 658.795C544.443 657.989 544.625 657.295 544.989 656.716C545.352 656.136 545.872 655.69 546.548 655.378C547.23 655.065 548.04 654.909 548.977 654.909H554.364V668H552.455ZM543.727 668L547.443 661.489H549.625L545.909 668H543.727ZM559.016 668V654.909H564.368C565.778 654.909 566.897 655.227 567.726 655.864C568.556 656.5 568.971 657.341 568.971 658.386C568.971 659.182 568.735 659.798 568.263 660.236C567.792 660.668 567.187 660.96 566.448 661.114C566.931 661.182 567.4 661.352 567.854 661.625C568.315 661.898 568.695 662.273 568.996 662.75C569.297 663.222 569.448 663.801 569.448 664.489C569.448 665.159 569.278 665.759 568.937 666.287C568.596 666.815 568.107 667.233 567.471 667.54C566.834 667.847 566.073 668 565.187 668H559.016ZM560.925 666.159H565.187C565.88 666.159 566.422 665.994 566.815 665.665C567.207 665.335 567.403 664.886 567.403 664.318C567.403 663.642 567.207 663.111 566.815 662.724C566.422 662.332 565.88 662.136 565.187 662.136H560.925V666.159ZM560.925 660.398H564.368C564.908 660.398 565.371 660.324 565.758 660.176C566.144 660.023 566.44 659.807 566.644 659.528C566.854 659.244 566.959 658.909 566.959 658.523C566.959 657.972 566.729 657.54 566.269 657.227C565.809 656.909 565.175 656.75 564.368 656.75H560.925V660.398ZM573.453 668V654.909H575.464V660.602H576.794L581.498 654.909H584.089L578.805 661.216L584.157 668H581.566L577.271 662.477H575.464V668H573.453ZM591.156 668.307C590.326 668.307 589.573 668.151 588.897 667.838C588.221 667.52 587.684 667.062 587.286 666.466C586.889 665.864 586.69 665.136 586.69 664.284C586.69 663.534 586.838 662.926 587.133 662.46C587.428 661.989 587.823 661.619 588.318 661.352C588.812 661.085 589.357 660.886 589.954 660.756C590.556 660.619 591.161 660.511 591.769 660.432C592.565 660.33 593.21 660.253 593.704 660.202C594.204 660.145 594.568 660.051 594.795 659.92C595.028 659.79 595.144 659.562 595.144 659.239V659.17C595.144 658.33 594.914 657.676 594.454 657.21C593.999 656.744 593.309 656.511 592.383 656.511C591.423 656.511 590.67 656.722 590.124 657.142C589.579 657.562 589.195 658.011 588.974 658.489L587.065 657.807C587.406 657.011 587.86 656.392 588.428 655.949C589.002 655.5 589.627 655.187 590.303 655.011C590.985 654.83 591.656 654.739 592.315 654.739C592.735 654.739 593.218 654.79 593.764 654.892C594.315 654.989 594.846 655.19 595.357 655.497C595.874 655.804 596.303 656.267 596.644 656.886C596.985 657.506 597.156 658.335 597.156 659.375V668H595.144V666.227H595.042C594.906 666.511 594.678 666.815 594.36 667.139C594.042 667.463 593.619 667.739 593.09 667.966C592.562 668.193 591.917 668.307 591.156 668.307ZM591.463 666.5C592.258 666.5 592.928 666.344 593.474 666.031C594.025 665.719 594.44 665.315 594.718 664.821C595.002 664.327 595.144 663.807 595.144 663.261V661.42C595.059 661.523 594.872 661.616 594.582 661.702C594.298 661.781 593.968 661.852 593.593 661.915C593.224 661.972 592.863 662.023 592.511 662.068C592.164 662.108 591.883 662.142 591.667 662.17C591.144 662.239 590.656 662.349 590.201 662.503C589.752 662.651 589.389 662.875 589.11 663.176C588.838 663.472 588.701 663.875 588.701 664.386C588.701 665.085 588.96 665.614 589.477 665.972C589.999 666.324 590.661 666.5 591.463 666.5Z" fill="#F8F8F9"/>
<path d="M818.278 607.273C818.278 609.114 817.945 610.705 817.281 612.045C816.616 613.386 815.704 614.42 814.545 615.148C813.386 615.875 812.062 616.239 810.573 616.239C809.085 616.239 807.761 615.875 806.602 615.148C805.443 614.42 804.531 613.386 803.866 612.045C803.201 610.705 802.869 609.114 802.869 607.273C802.869 605.432 803.201 603.841 803.866 602.5C804.531 601.159 805.443 600.125 806.602 599.398C807.761 598.67 809.085 598.307 810.573 598.307C812.062 598.307 813.386 598.67 814.545 599.398C815.704 600.125 816.616 601.159 817.281 602.5C817.945 603.841 818.278 605.432 818.278 607.273ZM816.232 607.273C816.232 605.761 815.979 604.486 815.474 603.446C814.974 602.406 814.295 601.619 813.437 601.085C812.585 600.551 811.63 600.284 810.573 600.284C809.516 600.284 808.559 600.551 807.701 601.085C806.849 601.619 806.17 602.406 805.664 603.446C805.164 604.486 804.914 605.761 804.914 607.273C804.914 608.784 805.164 610.06 805.664 611.099C806.17 612.139 806.849 612.926 807.701 613.46C808.559 613.994 809.516 614.261 810.573 614.261C811.63 614.261 812.585 613.994 813.437 613.46C814.295 612.926 814.974 612.139 815.474 611.099C815.979 610.06 816.232 608.784 816.232 607.273ZM832.235 598L833.258 599.227C832.86 599.614 832.4 599.884 831.877 600.037C831.354 600.19 830.763 600.284 830.104 600.318C829.445 600.352 828.712 600.386 827.905 600.42C826.996 600.455 826.243 600.676 825.647 601.085C825.05 601.494 824.59 602.085 824.266 602.858C823.942 603.631 823.735 604.58 823.644 605.705H823.814C824.258 604.886 824.871 604.284 825.655 603.898C826.439 603.511 827.28 603.318 828.178 603.318C829.201 603.318 830.121 603.557 830.939 604.034C831.758 604.511 832.405 605.219 832.883 606.156C833.36 607.094 833.599 608.25 833.599 609.625C833.599 610.994 833.354 612.176 832.866 613.17C832.383 614.165 831.704 614.932 830.829 615.472C829.959 616.006 828.939 616.273 827.769 616.273C826.599 616.273 825.573 615.997 824.692 615.446C823.812 614.889 823.127 614.065 822.638 612.974C822.15 611.878 821.905 610.523 821.905 608.909V607.511C821.905 604.597 822.4 602.386 823.388 600.881C824.383 599.375 825.877 598.597 827.871 598.545C828.576 598.523 829.204 598.517 829.755 598.528C830.306 598.54 830.786 598.514 831.195 598.452C831.604 598.389 831.951 598.239 832.235 598ZM827.769 614.466C828.559 614.466 829.238 614.267 829.806 613.869C830.38 613.472 830.82 612.912 831.127 612.19C831.434 611.463 831.587 610.608 831.587 609.625C831.587 608.67 831.431 607.858 831.118 607.188C830.812 606.517 830.371 606.006 829.797 605.653C829.224 605.301 828.536 605.125 827.735 605.125C827.15 605.125 826.624 605.224 826.158 605.423C825.692 605.622 825.295 605.915 824.965 606.301C824.636 606.687 824.38 607.159 824.198 607.716C824.022 608.273 823.928 608.909 823.917 609.625C823.917 611.091 824.261 612.264 824.948 613.145C825.636 614.026 826.576 614.466 827.769 614.466ZM838.931 620.909C838.59 620.909 838.286 620.881 838.019 620.824C837.752 620.773 837.567 620.722 837.465 620.67L837.976 618.898C838.465 619.023 838.897 619.068 839.272 619.034C839.647 619 839.979 618.832 840.269 618.531C840.564 618.236 840.834 617.756 841.078 617.091L841.453 616.068L836.613 602.909H838.794L842.408 613.341H842.544L846.158 602.909H848.34L842.783 617.909C842.533 618.585 842.223 619.145 841.854 619.588C841.485 620.037 841.056 620.369 840.567 620.585C840.084 620.801 839.539 620.909 838.931 620.909ZM861.647 602.909V616H859.636V602.909H861.647ZM860.863 609.148V611.023C860.408 611.193 859.957 611.344 859.508 611.474C859.059 611.599 858.587 611.699 858.093 611.773C857.599 611.841 857.056 611.875 856.465 611.875C854.982 611.875 853.792 611.474 852.894 610.673C852.002 609.872 851.556 608.67 851.556 607.068V602.875H853.568V607.068C853.568 607.739 853.695 608.29 853.951 608.722C854.207 609.153 854.553 609.474 854.991 609.685C855.428 609.895 855.92 610 856.465 610C857.318 610 858.087 609.923 858.775 609.77C859.468 609.611 860.164 609.403 860.863 609.148ZM871.786 616.273C870.525 616.273 869.437 615.994 868.522 615.438C867.613 614.875 866.911 614.091 866.417 613.085C865.928 612.074 865.684 610.898 865.684 609.557C865.684 608.216 865.928 607.034 866.417 606.011C866.911 604.983 867.599 604.182 868.479 603.608C869.366 603.028 870.4 602.739 871.582 602.739C872.263 602.739 872.937 602.852 873.601 603.08C874.266 603.307 874.871 603.676 875.417 604.188C875.962 604.693 876.397 605.364 876.721 606.199C877.045 607.034 877.207 608.062 877.207 609.284V610.136H867.116V608.398H875.161C875.161 607.659 875.013 607 874.718 606.42C874.428 605.841 874.013 605.384 873.474 605.048C872.94 604.713 872.309 604.545 871.582 604.545C870.78 604.545 870.087 604.744 869.502 605.142C868.922 605.534 868.476 606.045 868.164 606.676C867.851 607.307 867.695 607.983 867.695 608.705V609.864C867.695 610.852 867.866 611.69 868.207 612.378C868.553 613.06 869.033 613.58 869.647 613.938C870.261 614.29 870.974 614.466 871.786 614.466C872.315 614.466 872.792 614.392 873.218 614.244C873.65 614.091 874.022 613.864 874.334 613.562C874.647 613.256 874.888 612.875 875.059 612.42L877.002 612.966C876.797 613.625 876.454 614.205 875.971 614.705C875.488 615.199 874.891 615.585 874.181 615.864C873.471 616.136 872.672 616.273 871.786 616.273ZM889.988 608.534V610.409H882.76V608.534H889.988ZM883.238 602.909V616H881.226V602.909H883.238ZM891.522 602.909V616H889.51V602.909H891.522ZM898.166 613.034L904.473 602.909H906.791V616H904.78V605.875L898.507 616H896.155V602.909H898.166V613.034ZM916.924 616.273C915.663 616.273 914.574 615.994 913.66 615.438C912.751 614.875 912.049 614.091 911.555 613.085C911.066 612.074 910.822 610.898 910.822 609.557C910.822 608.216 911.066 607.034 911.555 606.011C912.049 604.983 912.736 604.182 913.617 603.608C914.503 603.028 915.538 602.739 916.719 602.739C917.401 602.739 918.074 602.852 918.739 603.08C919.404 603.307 920.009 603.676 920.555 604.188C921.1 604.693 921.535 605.364 921.859 606.199C922.182 607.034 922.344 608.062 922.344 609.284V610.136H912.253V608.398H920.299C920.299 607.659 920.151 607 919.856 606.42C919.566 605.841 919.151 605.384 918.611 605.048C918.077 604.713 917.447 604.545 916.719 604.545C915.918 604.545 915.225 604.744 914.64 605.142C914.06 605.534 913.614 606.045 913.302 606.676C912.989 607.307 912.833 607.983 912.833 608.705V609.864C912.833 610.852 913.003 611.69 913.344 612.378C913.691 613.06 914.171 613.58 914.785 613.938C915.398 614.29 916.111 614.466 916.924 614.466C917.452 614.466 917.93 614.392 918.356 614.244C918.788 614.091 919.16 613.864 919.472 613.562C919.785 613.256 920.026 612.875 920.197 612.42L922.14 612.966C921.935 613.625 921.592 614.205 921.109 614.705C920.626 615.199 920.029 615.585 919.319 615.864C918.609 616.136 917.81 616.273 916.924 616.273Z" fill="#F8F8F9"/>
<g filter="url(#filter0_d_1_704)">
<path d="M251 649.5C369.915 610.838 555.5 550.5 555.5 550.5L642 586L862 499.5L937.5 529L1066 251.5" stroke="#1D56EB" stroke-width="4"/>
</g>
<g opacity="0.1" filter="url(#filter1_d_1_704)">
<path d="M251 654L555.5 555L642 590.5L862 504L937.5 533.5L1066 256" stroke="#1D56EB" stroke-width="4"/>
</g>
<g opacity="0.15" filter="url(#filter2_d_1_704)">
<path d="M931 500C931 538.108 900.108 569 862 569C823.892 569 793 538.108 793 500C793 461.892 823.892 431 862 431C900.108 431 931 461.892 931 500ZM819.613 500C819.613 523.409 838.591 542.387 862 542.387C885.409 542.387 904.387 523.409 904.387 500C904.387 476.591 885.409 457.613 862 457.613C838.591 457.613 819.613 476.591 819.613 500Z" fill="#1D56EB"/>
</g>
<g opacity="0.15" filter="url(#filter3_d_1_704)">
<path d="M624 552C624 590.108 593.108 621 555 621C516.892 621 486 590.108 486 552C486 513.892 516.892 483 555 483C593.108 483 624 513.892 624 552ZM512.613 552C512.613 575.409 531.591 594.387 555 594.387C578.409 594.387 597.387 575.409 597.387 552C597.387 528.591 578.409 509.613 555 509.613C531.591 509.613 512.613 528.591 512.613 552Z" fill="#1D56EB"/>
</g>
<path opacity="0.15" d="M1135 252C1135 290.108 1104.11 321 1066 321C1027.89 321 997 290.108 997 252C997 213.892 1027.89 183 1066 183C1104.11 183 1135 213.892 1135 252ZM1023.61 252C1023.61 275.409 1042.59 294.387 1066 294.387C1089.41 294.387 1108.39 275.409 1108.39 252C1108.39 228.591 1089.41 209.613 1066 209.613C1042.59 209.613 1023.61 228.591 1023.61 252Z" fill="#1D56EB"/>
<g opacity="0.3" filter="url(#filter4_d_1_704)">
<path d="M1135 252C1135 290.108 1104.11 321 1066 321C1027.89 321 997 290.108 997 252C997 213.892 1027.89 183 1066 183C1104.11 183 1135 213.892 1135 252ZM1023.61 252C1023.61 275.409 1042.59 294.387 1066 294.387C1089.41 294.387 1108.39 275.409 1108.39 252C1108.39 228.591 1089.41 209.613 1066 209.613C1042.59 209.613 1023.61 228.591 1023.61 252Z" fill="#1D56EB"/>
</g>
<circle cx="555" cy="552" r="18" fill="#1D56EB"/>
<circle cx="862" cy="500" r="18" fill="#1D56EB"/>
<circle cx="1066" cy="252" r="18" fill="#1D56EB"/>
<path opacity="0.3" d="M862 431C875.268 431 888.255 434.825 899.404 442.018C910.554 449.21 919.393 459.465 924.863 471.553C930.333 483.641 932.202 497.05 930.246 510.173C928.29 523.296 922.592 535.576 913.834 545.544C905.076 555.511 893.631 562.742 880.869 566.37C868.106 569.998 854.568 569.87 841.877 566.001C829.186 562.131 817.879 554.685 809.312 544.553C800.745 534.422 795.281 522.035 793.573 508.877L819.966 505.453C821.014 513.536 824.371 521.145 829.634 527.369C834.897 533.593 841.842 538.167 849.639 540.544C857.435 542.921 865.751 543 873.591 540.771C881.431 538.542 888.462 534.1 893.842 527.977C899.221 521.855 902.722 514.31 903.923 506.249C905.125 498.188 903.977 489.951 900.617 482.525C897.256 475.099 891.826 468.8 884.977 464.382C878.128 459.963 870.151 457.613 862 457.613V431Z" fill="#1D56EB"/>
<path opacity="0.2" d="M555 483C564.831 483 574.548 485.101 583.501 489.161C592.453 493.222 600.435 499.148 606.911 506.544L586.889 524.077C582.911 519.533 578.008 515.893 572.508 513.398C567.008 510.904 561.039 509.613 555 509.613V483Z" fill="#1D56EB"/>
<path d="M557.365 543.545V561H555.251V545.761H555.149L550.888 548.591V546.443L555.251 543.545H557.365Z" fill="#F8F8F9"/>
<path d="M857.041 508V506.466L862.803 500.159C863.479 499.42 864.036 498.778 864.473 498.233C864.911 497.682 865.234 497.165 865.445 496.682C865.661 496.193 865.768 495.682 865.768 495.148C865.768 494.534 865.621 494.003 865.325 493.554C865.036 493.105 864.638 492.759 864.132 492.514C863.626 492.27 863.058 492.148 862.428 492.148C861.757 492.148 861.172 492.287 860.672 492.565C860.178 492.838 859.794 493.222 859.521 493.716C859.254 494.21 859.121 494.79 859.121 495.455H857.109C857.109 494.432 857.345 493.534 857.817 492.761C858.288 491.989 858.93 491.386 859.743 490.955C860.561 490.523 861.479 490.307 862.496 490.307C863.518 490.307 864.425 490.523 865.214 490.955C866.004 491.386 866.624 491.969 867.072 492.702C867.521 493.435 867.746 494.25 867.746 495.148C867.746 495.79 867.629 496.418 867.396 497.031C867.169 497.639 866.771 498.318 866.203 499.068C865.641 499.812 864.859 500.722 863.859 501.795L859.939 505.989V506.125H868.053V508H857.041Z" fill="#F8F8F9"/>
<path d="M1066.06 260.239C1064.94 260.239 1063.94 260.045 1063.06 259.659C1062.18 259.273 1061.48 258.736 1060.97 258.048C1060.46 257.355 1060.18 256.551 1060.13 255.636H1062.28C1062.33 256.199 1062.52 256.685 1062.86 257.094C1063.2 257.497 1063.65 257.81 1064.2 258.031C1064.75 258.253 1065.36 258.364 1066.03 258.364C1066.78 258.364 1067.44 258.233 1068.02 257.972C1068.6 257.71 1069.06 257.347 1069.39 256.881C1069.72 256.415 1069.88 255.875 1069.88 255.261C1069.88 254.619 1069.72 254.054 1069.4 253.565C1069.09 253.071 1068.62 252.685 1068.01 252.406C1067.39 252.128 1066.64 251.989 1065.76 251.989H1064.36V250.114H1065.76C1066.45 250.114 1067.06 249.989 1067.58 249.739C1068.11 249.489 1068.52 249.136 1068.82 248.682C1069.12 248.227 1069.27 247.693 1069.27 247.08C1069.27 246.489 1069.14 245.974 1068.88 245.537C1068.62 245.099 1068.25 244.759 1067.77 244.514C1067.3 244.27 1066.74 244.148 1066.1 244.148C1065.5 244.148 1064.93 244.259 1064.39 244.48C1063.87 244.696 1063.43 245.011 1063.1 245.426C1062.76 245.835 1062.58 246.33 1062.55 246.909H1060.51C1060.54 245.994 1060.82 245.193 1061.33 244.506C1061.85 243.812 1062.53 243.273 1063.36 242.886C1064.2 242.5 1065.13 242.307 1066.13 242.307C1067.21 242.307 1068.14 242.526 1068.91 242.963C1069.68 243.395 1070.28 243.966 1070.69 244.676C1071.11 245.386 1071.31 246.153 1071.31 246.977C1071.31 247.96 1071.06 248.798 1070.54 249.491C1070.03 250.185 1069.33 250.665 1068.45 250.932V251.068C1069.55 251.25 1070.41 251.719 1071.03 252.474C1071.65 253.224 1071.96 254.153 1071.96 255.261C1071.96 256.21 1071.7 257.062 1071.19 257.818C1070.67 258.568 1069.98 259.159 1069.09 259.591C1068.2 260.023 1067.19 260.239 1066.06 260.239Z" fill="#F8F8F9"/>
<path d="M958.377 352.42V350.545H971.467V352.42H965.979V368H963.865V352.42H958.377ZM974.057 372.909V354.909H976.001V356.989H976.239C976.387 356.761 976.592 356.472 976.853 356.119C977.12 355.761 977.501 355.443 977.995 355.165C978.495 354.881 979.171 354.739 980.023 354.739C981.126 354.739 982.097 355.014 982.938 355.565C983.779 356.116 984.435 356.898 984.907 357.909C985.378 358.92 985.614 360.114 985.614 361.489C985.614 362.875 985.378 364.077 984.907 365.094C984.435 366.105 983.782 366.889 982.947 367.446C982.111 367.997 981.148 368.273 980.057 368.273C979.217 368.273 978.543 368.134 978.038 367.855C977.532 367.571 977.143 367.25 976.87 366.892C976.597 366.528 976.387 366.227 976.239 365.989H976.069V372.909H974.057ZM976.035 361.455C976.035 362.443 976.18 363.315 976.469 364.071C976.759 364.821 977.182 365.409 977.739 365.835C978.296 366.256 978.978 366.466 979.785 366.466C980.626 366.466 981.327 366.244 981.89 365.801C982.458 365.352 982.884 364.75 983.168 363.994C983.458 363.233 983.603 362.386 983.603 361.455C983.603 360.534 983.461 359.705 983.177 358.966C982.898 358.222 982.475 357.634 981.907 357.202C981.344 356.764 980.637 356.545 979.785 356.545C978.967 356.545 978.279 356.753 977.722 357.168C977.165 357.577 976.745 358.151 976.461 358.889C976.177 359.622 976.035 360.477 976.035 361.455ZM990.469 372.909C990.128 372.909 989.824 372.881 989.557 372.824C989.29 372.773 989.106 372.722 989.003 372.67L989.515 370.898C990.003 371.023 990.435 371.068 990.81 371.034C991.185 371 991.517 370.832 991.807 370.531C992.103 370.236 992.373 369.756 992.617 369.091L992.992 368.068L988.151 354.909H990.333L993.946 365.341H994.083L997.696 354.909H999.878L994.321 369.909C994.071 370.585 993.762 371.145 993.392 371.588C993.023 372.037 992.594 372.369 992.106 372.585C991.623 372.801 991.077 372.909 990.469 372.909ZM1000.99 371.75V366.125H1002.08C1002.35 365.847 1002.58 365.545 1002.78 365.222C1002.97 364.898 1003.14 364.514 1003.28 364.071C1003.43 363.622 1003.55 363.077 1003.65 362.435C1003.76 361.787 1003.85 361.006 1003.93 360.091L1004.37 354.909H1012.69V366.125H1014.7V371.75H1012.69V368H1003.01V371.75H1000.99ZM1004.37 366.125H1010.68V356.784H1006.24L1005.9 360.091C1005.76 361.46 1005.58 362.656 1005.37 363.679C1005.16 364.702 1004.83 365.517 1004.37 366.125ZM1023.65 368.273C1022.46 368.273 1021.43 367.991 1020.54 367.429C1019.65 366.866 1018.96 366.08 1018.46 365.068C1017.96 364.057 1017.71 362.875 1017.71 361.523C1017.71 360.159 1017.96 358.969 1018.46 357.952C1018.96 356.935 1019.65 356.145 1020.54 355.582C1021.43 355.02 1022.46 354.739 1023.65 354.739C1024.83 354.739 1025.86 355.02 1026.75 355.582C1027.64 356.145 1028.33 356.935 1028.83 357.952C1029.33 358.969 1029.58 360.159 1029.58 361.523C1029.58 362.875 1029.33 364.057 1028.83 365.068C1028.33 366.08 1027.64 366.866 1026.75 367.429C1025.86 367.991 1024.83 368.273 1023.65 368.273ZM1023.65 366.466C1024.54 366.466 1025.28 366.236 1025.86 365.776C1026.44 365.315 1026.87 364.71 1027.15 363.96C1027.43 363.21 1027.57 362.398 1027.57 361.523C1027.57 360.648 1027.43 359.832 1027.15 359.077C1026.87 358.321 1026.44 357.71 1025.86 357.244C1025.28 356.778 1024.54 356.545 1023.65 356.545C1022.75 356.545 1022.01 356.778 1021.43 357.244C1020.85 357.71 1020.42 358.321 1020.14 359.077C1019.87 359.832 1019.73 360.648 1019.73 361.523C1019.73 362.398 1019.87 363.21 1020.14 363.96C1020.42 364.71 1020.85 365.315 1021.43 365.776C1022.01 366.236 1022.75 366.466 1023.65 366.466ZM1034.44 372.909C1034.09 372.909 1033.79 372.881 1033.52 372.824C1033.26 372.773 1033.07 372.722 1032.97 372.67L1033.48 370.898C1033.97 371.023 1034.4 371.068 1034.78 371.034C1035.15 371 1035.48 370.832 1035.77 370.531C1036.07 370.236 1036.34 369.756 1036.58 369.091L1036.96 368.068L1032.12 354.909H1034.3L1037.91 365.341H1038.05L1041.66 354.909H1043.84L1038.29 369.909C1038.04 370.585 1037.73 371.145 1037.36 371.588C1036.99 372.037 1036.56 372.369 1036.07 372.585C1035.59 372.801 1035.04 372.909 1034.44 372.909ZM1052.31 368.273C1051.08 368.273 1050.02 367.983 1049.14 367.403C1048.25 366.824 1047.57 366.026 1047.09 365.009C1046.62 363.991 1046.38 362.83 1046.38 361.523C1046.38 360.193 1046.62 359.02 1047.11 358.003C1047.6 356.98 1048.29 356.182 1049.17 355.608C1050.06 355.028 1051.09 354.739 1052.27 354.739C1053.19 354.739 1054.02 354.909 1054.76 355.25C1055.5 355.591 1056.11 356.068 1056.58 356.682C1057.05 357.295 1057.34 358.011 1057.46 358.83H1055.44C1055.29 358.233 1054.95 357.705 1054.42 357.244C1053.9 356.778 1053.19 356.545 1052.31 356.545C1051.52 356.545 1050.84 356.75 1050.25 357.159C1049.66 357.562 1049.2 358.134 1048.87 358.872C1048.55 359.605 1048.39 360.466 1048.39 361.455C1048.39 362.466 1048.55 363.347 1048.87 364.097C1049.19 364.847 1049.64 365.429 1050.23 365.844C1050.82 366.259 1051.51 366.466 1052.31 366.466C1052.83 366.466 1053.31 366.375 1053.73 366.193C1054.16 366.011 1054.52 365.75 1054.81 365.409C1055.11 365.068 1055.32 364.659 1055.44 364.182H1057.46C1057.34 364.955 1057.06 365.651 1056.61 366.27C1056.17 366.884 1055.58 367.372 1054.85 367.736C1054.12 368.094 1053.27 368.273 1052.31 368.273ZM1060.33 356.784V354.909H1070.96V356.784H1066.67V368H1064.65V356.784H1060.33ZM1074.86 372.909V354.909H1076.8V356.989H1077.04C1077.19 356.761 1077.39 356.472 1077.65 356.119C1077.92 355.761 1078.3 355.443 1078.79 355.165C1079.29 354.881 1079.97 354.739 1080.82 354.739C1081.92 354.739 1082.9 355.014 1083.74 355.565C1084.58 356.116 1085.23 356.898 1085.71 357.909C1086.18 358.92 1086.41 360.114 1086.41 361.489C1086.41 362.875 1086.18 364.077 1085.71 365.094C1085.23 366.105 1084.58 366.889 1083.74 367.446C1082.91 367.997 1081.95 368.273 1080.86 368.273C1080.01 368.273 1079.34 368.134 1078.84 367.855C1078.33 367.571 1077.94 367.25 1077.67 366.892C1077.4 366.528 1077.19 366.227 1077.04 365.989H1076.87V372.909H1074.86ZM1076.83 361.455C1076.83 362.443 1076.98 363.315 1077.27 364.071C1077.56 364.821 1077.98 365.409 1078.54 365.835C1079.09 366.256 1079.78 366.466 1080.58 366.466C1081.42 366.466 1082.13 366.244 1082.69 365.801C1083.26 365.352 1083.68 364.75 1083.97 363.994C1084.26 363.233 1084.4 362.386 1084.4 361.455C1084.4 360.534 1084.26 359.705 1083.97 358.966C1083.7 358.222 1083.27 357.634 1082.71 357.202C1082.14 356.764 1081.44 356.545 1080.58 356.545C1079.76 356.545 1079.08 356.753 1078.52 357.168C1077.96 357.577 1077.54 358.151 1077.26 358.889C1076.97 359.622 1076.83 360.477 1076.83 361.455ZM1095.76 368.273C1094.58 368.273 1093.54 367.991 1092.65 367.429C1091.76 366.866 1091.07 366.08 1090.57 365.068C1090.07 364.057 1089.83 362.875 1089.83 361.523C1089.83 360.159 1090.07 358.969 1090.57 357.952C1091.07 356.935 1091.76 356.145 1092.65 355.582C1093.54 355.02 1094.58 354.739 1095.76 354.739C1096.94 354.739 1097.97 355.02 1098.86 355.582C1099.75 356.145 1100.45 356.935 1100.94 357.952C1101.44 358.969 1101.69 360.159 1101.69 361.523C1101.69 362.875 1101.44 364.057 1100.94 365.068C1100.45 366.08 1099.75 366.866 1098.86 367.429C1097.97 367.991 1096.94 368.273 1095.76 368.273ZM1095.76 366.466C1096.66 366.466 1097.4 366.236 1097.97 365.776C1098.55 365.315 1098.98 364.71 1099.26 363.96C1099.54 363.21 1099.68 362.398 1099.68 361.523C1099.68 360.648 1099.54 359.832 1099.26 359.077C1098.98 358.321 1098.55 357.71 1097.97 357.244C1097.4 356.778 1096.66 356.545 1095.76 356.545C1094.86 356.545 1094.12 356.778 1093.54 357.244C1092.96 357.71 1092.53 358.321 1092.26 359.077C1091.98 359.832 1091.84 360.648 1091.84 361.523C1091.84 362.398 1091.98 363.21 1092.26 363.96C1092.53 364.71 1092.96 365.315 1093.54 365.776C1094.12 366.236 1094.86 366.466 1095.76 366.466ZM1107.73 365.034L1114.04 354.909H1116.36V368H1114.35V357.875L1108.07 368H1105.72V354.909H1107.73V365.034ZM1112.71 350.545H1114.58C1114.58 351.466 1114.27 352.219 1113.63 352.804C1112.99 353.389 1112.13 353.682 1111.04 353.682C1109.97 353.682 1109.11 353.389 1108.47 352.804C1107.84 352.219 1107.53 351.466 1107.53 350.545H1109.4C1109.4 350.989 1109.52 351.378 1109.77 351.713C1110.02 352.048 1110.44 352.216 1111.04 352.216C1111.64 352.216 1112.06 352.048 1112.32 351.713C1112.58 351.378 1112.71 350.989 1112.71 350.545ZM1126.32 368.273C1125.09 368.273 1124.04 367.983 1123.15 367.403C1122.26 366.824 1121.58 366.026 1121.1 365.009C1120.63 363.991 1120.39 362.83 1120.39 361.523C1120.39 360.193 1120.63 359.02 1121.12 358.003C1121.61 356.98 1122.3 356.182 1123.18 355.608C1124.07 355.028 1125.1 354.739 1126.29 354.739C1127.21 354.739 1128.04 354.909 1128.77 355.25C1129.51 355.591 1130.12 356.068 1130.59 356.682C1131.06 357.295 1131.35 358.011 1131.47 358.83H1129.46C1129.3 358.233 1128.96 357.705 1128.43 357.244C1127.91 356.778 1127.21 356.545 1126.32 356.545C1125.54 356.545 1124.85 356.75 1124.26 357.159C1123.67 357.562 1123.21 358.134 1122.88 358.872C1122.56 359.605 1122.4 360.466 1122.4 361.455C1122.4 362.466 1122.56 363.347 1122.88 364.097C1123.2 364.847 1123.65 365.429 1124.24 365.844C1124.83 366.259 1125.52 366.466 1126.32 366.466C1126.84 366.466 1127.32 366.375 1127.74 366.193C1128.17 366.011 1128.53 365.75 1128.83 365.409C1129.12 365.068 1129.33 364.659 1129.46 364.182H1131.47C1131.35 364.955 1131.07 365.651 1130.62 366.27C1130.18 366.884 1129.59 367.372 1128.86 367.736C1128.13 368.094 1127.29 368.273 1126.32 368.273ZM1134.34 356.784V354.909H1144.97V356.784H1140.68V368H1138.67V356.784H1134.34ZM1148.87 368V354.909H1154.22C1155.63 354.909 1156.75 355.227 1157.58 355.864C1158.41 356.5 1158.82 357.341 1158.82 358.386C1158.82 359.182 1158.59 359.798 1158.11 360.236C1157.64 360.668 1157.04 360.96 1156.3 361.114C1156.78 361.182 1157.25 361.352 1157.7 361.625C1158.16 361.898 1158.55 362.273 1158.85 362.75C1159.15 363.222 1159.3 363.801 1159.3 364.489C1159.3 365.159 1159.13 365.759 1158.79 366.287C1158.45 366.815 1157.96 367.233 1157.32 367.54C1156.68 367.847 1155.92 368 1155.04 368H1148.87ZM1150.78 366.159H1155.04C1155.73 366.159 1156.27 365.994 1156.66 365.665C1157.06 365.335 1157.25 364.886 1157.25 364.318C1157.25 363.642 1157.06 363.111 1156.66 362.724C1156.27 362.332 1155.73 362.136 1155.04 362.136H1150.78V366.159ZM1150.78 360.398H1154.22C1154.76 360.398 1155.22 360.324 1155.61 360.176C1155.99 360.023 1156.29 359.807 1156.49 359.528C1156.7 359.244 1156.81 358.909 1156.81 358.523C1156.81 357.972 1156.58 357.54 1156.12 357.227C1155.66 356.909 1155.03 356.75 1154.22 356.75H1150.78V360.398ZM1168.62 368.273C1167.44 368.273 1166.4 367.991 1165.51 367.429C1164.62 366.866 1163.93 366.08 1163.43 365.068C1162.94 364.057 1162.69 362.875 1162.69 361.523C1162.69 360.159 1162.94 358.969 1163.43 357.952C1163.93 356.935 1164.62 356.145 1165.51 355.582C1166.4 355.02 1167.44 354.739 1168.62 354.739C1169.8 354.739 1170.84 355.02 1171.72 355.582C1172.62 356.145 1173.31 356.935 1173.8 357.952C1174.3 358.969 1174.55 360.159 1174.55 361.523C1174.55 362.875 1174.3 364.057 1173.8 365.068C1173.31 366.08 1172.62 366.866 1171.72 367.429C1170.84 367.991 1169.8 368.273 1168.62 368.273ZM1168.62 366.466C1169.52 366.466 1170.26 366.236 1170.84 365.776C1171.42 365.315 1171.85 364.71 1172.12 363.96C1172.4 363.21 1172.54 362.398 1172.54 361.523C1172.54 360.648 1172.4 359.832 1172.12 359.077C1171.85 358.321 1171.42 357.71 1170.84 357.244C1170.26 356.778 1169.52 356.545 1168.62 356.545C1167.72 356.545 1166.98 356.778 1166.41 357.244C1165.83 357.71 1165.4 358.321 1165.12 359.077C1164.84 359.832 1164.7 360.648 1164.7 361.523C1164.7 362.398 1164.84 363.21 1165.12 363.96C1165.4 364.71 1165.83 365.315 1166.41 365.776C1166.98 366.236 1167.72 366.466 1168.62 366.466Z" fill="#F8F8F9"/>
<defs>
<filter id="filter0_d_1_704" x="0.381592" y="0.659668" width="1317.43" height="900.742" filterUnits="userSpaceOnUse" color-interpolation-filters="sRGB">
<feFlood flood-opacity="0" result="BackgroundImageFix"/>
<feColorMatrix in="SourceAlpha" type="matrix" values="0 0 0 0 0 0 0 0 0 0 0 0 0 0 0 0 0 0 127 0" result="hardAlpha"/>
<feOffset/>
<feGaussianBlur stdDeviation="125"/>
<feComposite in2="hardAlpha" operator="out"/>
<feColorMatrix type="matrix" values="0 0 0 0 0.113725 0 0 0 0 0.337255 0 0 0 0 0.921569 0 0 0 1 0"/>
<feBlend mode="normal" in2="BackgroundImageFix" result="effect1_dropShadow_1_704"/>
<feBlend mode="normal" in="SourceGraphic" in2="effect1_dropShadow_1_704" result="shape"/>
</filter>
<filter id="filter1_d_1_704" x="100.382" y="105.16" width="1117.43" height="700.742" filterUnits="userSpaceOnUse" color-interpolation-filters="sRGB">
<feFlood flood-opacity="0" result="BackgroundImageFix"/>
<feColorMatrix in="SourceAlpha" type="matrix" values="0 0 0 0 0 0 0 0 0 0 0 0 0 0 0 0 0 0 127 0" result="hardAlpha"/>
<feOffset/>
<feGaussianBlur stdDeviation="75"/>
<feComposite in2="hardAlpha" operator="out"/>
<feColorMatrix type="matrix" values="0 0 0 0 0.113725 0 0 0 0 0.337255 0 0 0 0 0.921569 0 0 0 1 0"/>
<feBlend mode="normal" in2="BackgroundImageFix" result="effect1_dropShadow_1_704"/>
<feBlend mode="normal" in="SourceGraphic" in2="effect1_dropShadow_1_704" result="shape"/>
</filter>
<filter id="filter2_d_1_704" x="693" y="331" width="338" height="338" filterUnits="userSpaceOnUse" color-interpolation-filters="sRGB">
<feFlood flood-opacity="0" result="BackgroundImageFix"/>
<feColorMatrix in="SourceAlpha" type="matrix" values="0 0 0 0 0 0 0 0 0 0 0 0 0 0 0 0 0 0 127 0" result="hardAlpha"/>
<feOffset/>
<feGaussianBlur stdDeviation="50"/>
<feComposite in2="hardAlpha" operator="out"/>
<feColorMatrix type="matrix" values="0 0 0 0 0.113725 0 0 0 0 0.337255 0 0 0 0 0.921569 0 0 0 1 0"/>
<feBlend mode="normal" in2="BackgroundImageFix" result="effect1_dropShadow_1_704"/>
<feBlend mode="normal" in="SourceGraphic" in2="effect1_dropShadow_1_704" result="shape"/>
</filter>
<filter id="filter3_d_1_704" x="386" y="383" width="338" height="338" filterUnits="userSpaceOnUse" color-interpolation-filters="sRGB">
<feFlood flood-opacity="0" result="BackgroundImageFix"/>
<feColorMatrix in="SourceAlpha" type="matrix" values="0 0 0 0 0 0 0 0 0 0 0 0 0 0 0 0 0 0 127 0" result="hardAlpha"/>
<feOffset/>
<feGaussianBlur stdDeviation="50"/>
<feComposite in2="hardAlpha" operator="out"/>
<feColorMatrix type="matrix" values="0 0 0 0 0.113725 0 0 0 0 0.337255 0 0 0 0 0.921569 0 0 0 1 0"/>
<feBlend mode="normal" in2="BackgroundImageFix" result="effect1_dropShadow_1_704"/>
<feBlend mode="normal" in="SourceGraphic" in2="effect1_dropShadow_1_704" result="shape"/>
</filter>
<filter id="filter4_d_1_704" x="897" y="83" width="338" height="338" filterUnits="userSpaceOnUse" color-interpolation-filters="sRGB">
<feFlood flood-opacity="0" result="BackgroundImageFix"/>
<feColorMatrix in="SourceAlpha" type="matrix" values="0 0 0 0 0 0 0 0 0 0 0 0 0 0 0 0 0 0 127 0" result="hardAlpha"/>
<feOffset/>
<feGaussianBlur stdDeviation="50"/>
<feComposite in2="hardAlpha" operator="out"/>
<feColorMatrix type="matrix" values="0 0 0 0 0.113725 0 0 0 0 0.337255 0 0 0 0 0.921569 0 0 0 1 0"/>
<feBlend mode="normal" in2="BackgroundImageFix" result="effect1_dropShadow_1_704"/>
<feBlend mode="normal" in="SourceGraphic" in2="effect1_dropShadow_1_704" result="shape"/>
</filter>
</defs>
</svg>
